# xmcd
#
# Track frame offsets:
#       150
#       8597
#       24117
#       33692
#       46957
#       63964
#       76920
#       88300
#       102457
#       113315
#       125725
#       136537
#       146562
#       162530
#
# Disc length: 2243 seconds
#
# Revision: 1
# Processed by: cddbd v1.5.1PL0 Copyright (c) Steve Scherf et al.
# Submitted via: MusiCat 1.1
#
DISCID=ad08c10e
DTITLE=Enúbio Queiroz - Viola refinada II
DYEAR=1900
DGENRE=
TTITLE0=Cordas Caipiras
TTITLE1=Lágrimas
TTITLE2=Capital da viola
TTITLE3=Song for Ana
TTITLE4=Índia
TTITLE5=Maringá
TTITLE6=O andar do tuiuiú
TTITLE7=El reloj
TTITLE8=Prelúdio da angola
TTITLE9=Ferreirinha
TTITLE10=Seresta
TTITLE11=Pavana
TTITLE12=Viola baiana
TTITLE13=Pout pourri de música country:Red river valley/Oh Suzana/Galope/Jamba
TTITLE13=laya
EXTD=\n\n
EXTT0=
EXTT1=
EXTT2=
EXTT3=
EXTT4=
EXTT5=
EXTT6=
EXTT7=
EXTT8=
EXTT9=
EXTT10=
EXTT11=
EXTT12=
EXTT13=
PLAYORDER=
